# xmcd
# Copyright (c) 1998 CDDB Inc.
#
# Track frame offsets:
#	150
#	13245
#	36377
#	37802
#	54125
#	61105
#	116520
#	135310
#	135985
#	165490
#	185067
#	200007
#	210452
#	227220
#	230530
#	234435
#	251280
#	268352
#
# Disc length: 3589 seconds
#
# Revision: 0
# Processed by: cddbd v1.4PL0 Copyright (c) Steve Scherf et al.
# Submitted via: audiograbber 1.70
#
DISCID=f20e0312
DTITLE=Quatsch M.I.T. Sosse - zwo
DYEAR=1900
DGENRE=
TTITLE0=tischlein deck dich
TTITLE1=bella
TTITLE2=kommunikationsproblem
TTITLE3=ich kann dich nicht leiden
TTITLE4=kleine fuge in schl...
TTITLE5=innerbody-race
TTITLE6=guckaisee-reggae
TTITLE7=annegret und ignaz
TTITLE8=die virtuelle weihnacht
TTITLE9=der schaffner
TTITLE10=iseboah
TTITLE11=juaf ...
TTITLE12=delächt
TTITLE13=millionär
TTITLE14=schwein gehabt - zwo
TTITLE15=buidetante rock 'n' roll
TTITLE16=das verlorene lachen
TTITLE17=anegret und ignaz - zwo
EXTD=Comedy - Rhöner Mundart
EXTT0=
EXTT1=
EXTT2=
EXTT3=
EXTT4=
EXTT5=
EXTT6=
EXTT7=
EXTT8=
EXTT9=
EXTT10=
EXTT11=
EXTT12=
EXTT13=
EXTT14=
EXTT15=
EXTT16=
EXTT17=
PLAYORDER=
